<svg xmlns="http://www.w3.org/2000/svg" width="1000" height="620" viewBox="0 0 1000 620">
<rect width="100%" height="100%" rx="18" fill="#0d1117"/>
<text x="45" y="55" fill="#f0f6fc" font-family="Arial,sans-serif" font-size="25" font-weight="700">GitHub Profile Analytics</text>
<text x="45" y="82" fill="#8b949e" font-family="Arial,sans-serif" font-size="14">Live data generated by GitHub Actions • @VihangaKulathilake</text>
<rect x="45" y="112" width="275" height="72" rx="12" fill="#161b22" stroke="#30363d"/>
<text x="63" y="139" fill="#8b949e" font-family="Arial,sans-serif" font-size="11" font-weight="700">PUBLIC REPOS</text>
<text x="63" y="169" fill="#f0f6fc" font-family="Arial,sans-serif" font-size="25" font-weight="700">14</text>
<rect x="350" y="112" width="275" height="72" rx="12" fill="#161b22" stroke="#30363d"/>
<text x="368" y="139" fill="#8b949e" font-family="Arial,sans-serif" font-size="11" font-weight="700">FOLLOWERS</text>
<text x="368" y="169" fill="#f0f6fc" font-family="Arial,sans-serif" font-size="25" font-weight="700">24</text>
<rect x="655" y="112" width="275" height="72" rx="12" fill="#161b22" stroke="#30363d"/>
<text x="673" y="139" fill="#8b949e" font-family="Arial,sans-serif" font-size="11" font-weight="700">FOLLOWING</text>
<text x="673" y="169" fill="#f0f6fc" font-family="Arial,sans-serif" font-size="25" font-weight="700">30</text>
<rect x="45" y="204" width="275" height="72" rx="12" fill="#161b22" stroke="#30363d"/>
<text x="63" y="231" fill="#8b949e" font-family="Arial,sans-serif" font-size="11" font-weight="700">STARS</text>
<text x="63" y="261" fill="#f0f6fc" font-family="Arial,sans-serif" font-size="25" font-weight="700">0</text>
<rect x="350" y="204" width="275" height="72" rx="12" fill="#161b22" stroke="#30363d"/>
<text x="368" y="231" fill="#8b949e" font-family="Arial,sans-serif" font-size="11" font-weight="700">FORKS</text>
<text x="368" y="261" fill="#f0f6fc" font-family="Arial,sans-serif" font-size="25" font-weight="700">6</text>
<rect x="655" y="204" width="275" height="72" rx="12" fill="#161b22" stroke="#30363d"/>
<text x="673" y="231" fill="#8b949e" font-family="Arial,sans-serif" font-size="11" font-weight="700">COMMITS</text>
<text x="673" y="261" fill="#f0f6fc" font-family="Arial,sans-serif" font-size="25" font-weight="700">0</text>
<rect x="45" y="296" width="275" height="72" rx="12" fill="#161b22" stroke="#30363d"/>
<text x="63" y="323" fill="#8b949e" font-family="Arial,sans-serif" font-size="11" font-weight="700">PULL REQUESTS</text>
<text x="63" y="353" fill="#f0f6fc" font-family="Arial,sans-serif" font-size="25" font-weight="700">76</text>
<rect x="350" y="296" width="275" height="72" rx="12" fill="#161b22" stroke="#30363d"/>
<text x="368" y="323" fill="#8b949e" font-family="Arial,sans-serif" font-size="11" font-weight="700">MERGED PRS</text>
<text x="368" y="353" fill="#f0f6fc" font-family="Arial,sans-serif" font-size="25" font-weight="700">62</text>
<rect x="655" y="296" width="275" height="72" rx="12" fill="#161b22" stroke="#30363d"/>
<text x="673" y="323" fill="#8b949e" font-family="Arial,sans-serif" font-size="11" font-weight="700">ISSUES</text>
<text x="673" y="353" fill="#f0f6fc" font-family="Arial,sans-serif" font-size="25" font-weight="700">0</text>
<text x="45" y="408" fill="#f0f6fc" font-family="Arial,sans-serif" font-size="18" font-weight="700">Language Distribution</text>
<text x="45" y="438" fill="#f0f6fc" font-family="Arial,sans-serif" font-size="13">JavaScript</text>
<rect x="180" y="426" width="600" height="14" rx="7" fill="#21262d"/>
<rect x="180" y="426" width="286.5" height="14" rx="7" fill="#58a6ff"/>
<text x="805" y="438" fill="#8b949e" font-family="Arial,sans-serif" font-size="13">47.7%</text>
<text x="45" y="459" fill="#f0f6fc" font-family="Arial,sans-serif" font-size="13">TypeScript</text>
<rect x="180" y="447" width="600" height="14" rx="7" fill="#21262d"/>
<rect x="180" y="447" width="144.1" height="14" rx="7" fill="#58a6ff"/>
<text x="805" y="459" fill="#8b949e" font-family="Arial,sans-serif" font-size="13">24.0%</text>
<text x="45" y="480" fill="#f0f6fc" font-family="Arial,sans-serif" font-size="13">Java</text>
<rect x="180" y="468" width="600" height="14" rx="7" fill="#21262d"/>
<rect x="180" y="468" width="67.7" height="14" rx="7" fill="#58a6ff"/>
<text x="805" y="480" fill="#8b949e" font-family="Arial,sans-serif" font-size="13">11.3%</text>
<text x="45" y="501" fill="#f0f6fc" font-family="Arial,sans-serif" font-size="13">CSS</text>
<rect x="180" y="489" width="600" height="14" rx="7" fill="#21262d"/>
<rect x="180" y="489" width="36.0" height="14" rx="7" fill="#58a6ff"/>
<text x="805" y="501" fill="#8b949e" font-family="Arial,sans-serif" font-size="13">6.0%</text>
<text x="45" y="522" fill="#f0f6fc" font-family="Arial,sans-serif" font-size="13">PHP</text>
<rect x="180" y="510" width="600" height="14" rx="7" fill="#21262d"/>
<rect x="180" y="510" width="32.9" height="14" rx="7" fill="#58a6ff"/>
<text x="805" y="522" fill="#8b949e" font-family="Arial,sans-serif" font-size="13">5.5%</text>
<text x="45" y="543" fill="#f0f6fc" font-family="Arial,sans-serif" font-size="13">Jupyter Notebook</text>
<rect x="180" y="531" width="600" height="14" rx="7" fill="#21262d"/>
<rect x="180" y="531" width="25.5" height="14" rx="7" fill="#58a6ff"/>
<text x="805" y="543" fill="#8b949e" font-family="Arial,sans-serif" font-size="13">4.3%</text>
<text x="45" y="564" fill="#f0f6fc" font-family="Arial,sans-serif" font-size="13">Assembly</text>
<rect x="180" y="552" width="600" height="14" rx="7" fill="#21262d"/>
<rect x="180" y="552" width="3.5" height="14" rx="7" fill="#58a6ff"/>
<text x="805" y="564" fill="#8b949e" font-family="Arial,sans-serif" font-size="13">0.6%</text>
<text x="45" y="585" fill="#f0f6fc" font-family="Arial,sans-serif" font-size="13">Dockerfile</text>
<rect x="180" y="573" width="600" height="14" rx="7" fill="#21262d"/>
<rect x="180" y="573" width="1.2" height="14" rx="7" fill="#58a6ff"/>
<text x="805" y="585" fill="#8b949e" font-family="Arial,sans-serif" font-size="13">0.2%</text>
<text x="45" y="600" fill="#8b949e" font-family="Arial,sans-serif" font-size="11">Updated automatically every day.</text>
</svg>